# Blender v2.80 (sub 75) OBJ File: 'untitled.blend'
# www.blender.org
mtllib FemorePezzoAlto.mtl
o GambaSingolaFemore.000_GambaSingolaFemore.003
v -33.699692 123.327583 -3.601594
v -35.037552 123.754211 1.452094
v -34.236622 121.855003 3.898948
v -34.712540 125.262482 3.969870
v -34.910084 122.956841 -6.091073
v -36.739304 125.024773 -5.848775
v -42.835518 130.010086 -1.052330
v -37.553104 127.212563 0.397578
v -38.858582 131.682907 16.744909
v -39.484558 131.100708 18.295738
v -36.180363 126.026443 19.501318
v -36.550911 125.224442 2.691318
v -38.726093 130.921814 14.120986
v -34.628044 122.694153 11.409402
v -37.869625 125.551285 9.844893
v -36.835335 123.965805 4.331766
v -31.472099 117.946281 22.598198
v -44.981113 133.531693 15.822350
v -45.794277 133.241013 17.810238
v -42.327438 127.562126 8.249274
v -42.416817 130.024414 0.356999
v -40.205910 126.401558 5.809374
v -38.001263 124.710480 6.960238
v -46.066509 129.638062 19.905209
v -43.587944 124.140198 22.575556
v -40.004871 118.924057 25.438982
v -48.334488 132.611694 14.849360
v -48.385902 129.170959 8.070114
v -47.387684 129.500137 0.848225
v -46.819489 128.754898 5.166355
v -46.392452 125.831741 -4.583937
v -43.355610 122.504456 -6.868524
v -50.419689 131.496765 17.369301
v -44.991447 120.240417 -8.502364
v -52.736977 124.874405 -2.779345
v -51.784103 127.099632 19.614038
v -47.533897 120.144669 23.597500
v -63.640221 122.886993 12.823903
v -58.934147 124.890526 16.067118
v -57.268684 123.565109 3.001142
v -52.048832 118.579308 -6.775404
v -58.286705 123.804024 8.713469
v -55.814724 123.823013 18.837633
v -63.778183 120.339874 5.125213
v -59.480164 120.654938 0.910457
v -61.709129 117.145172 0.202545
v -70.101303 115.594986 3.661425
vn 0.5456 0.7641 -0.3442
vn 0.0692 0.9223 -0.3802
vn 0.6875 0.7222 0.0756
vn 0.6171 0.7789 0.1115
vn 0.3634 0.6165 0.6985
vn 0.6816 0.5762 0.4511
vn 0.2992 0.9106 0.2850
vn 0.5393 0.7423 -0.3977
vn 0.6944 0.5135 -0.5041
vn 0.5867 0.6469 -0.4871
vn 0.5702 0.8155 -0.0992
vn 0.0895 0.7798 0.6196
vn 0.6818 0.7309 -0.0321
vn 0.3170 0.6716 0.6696
vn 0.2166 0.9575 -0.1905
vn 0.1651 0.0049 0.9863
vn 0.8478 0.5252 0.0732
vn 0.0713 0.9850 -0.1570
vn -0.0932 0.8498 0.5188
vn 0.3482 0.8498 -0.3956
vn 0.2565 0.9580 0.1281
vn 0.5001 0.8403 0.2090
vn 0.5557 0.8294 -0.0575
vn -0.0715 0.4611 0.8845
vn 0.0160 0.4660 0.8847
vn -0.3313 0.9185 -0.2160
vn -0.1555 0.9457 -0.2854
vn -0.3018 0.9353 -0.1847
vn 0.3049 0.9391 0.1586
vn -0.2045 0.6268 -0.7519
vn 0.0305 0.5019 0.8644
vn -0.4672 0.7680 0.4381
vn -0.0526 0.5883 -0.8069
vn -0.4934 0.6514 -0.5764
vn -0.2084 0.5310 -0.8213
vn -0.3965 0.4225 0.8150
vn -0.2106 0.3690 0.9052
vn -0.5306 0.8304 -0.1701
vn -0.5656 0.6325 0.5293
vn -0.5335 0.8143 -0.2285
vn -0.4358 0.4513 -0.7788
vn -0.4722 0.8415 -0.2625
vn -0.4612 0.4189 0.7822
vn -0.4748 0.8718 -0.1210
vn -0.5753 0.6416 -0.5073
vn -0.6049 0.4524 -0.6554
vn -0.4721 0.7234 -0.5038
usemtl mtl1.016
s 1
f 6//1 7//2 8//3
f 9//4 10//5 11//6
f 6//1 8//3 12//7
f 13//8 9//4 11//6
f 14//9 15//10 13//8
f 5//11 6//1 12//7
f 4//12 2//13 12//7
f 16//14 4//12 12//7
f 5//11 12//7 1//15
f 12//7 2//13 1//15
f 4//12 16//14 3//16
f 13//8 11//6 17//17
f 18//18 19//19 9//4
f 9//4 19//19 10//5
f 18//18 9//4 13//8
f 20//20 13//8 15//10
f 7//2 21//21 8//3
f 8//3 21//21 22//22
f 20//20 15//10 23//23
f 8//3 16//14 12//7
f 22//22 16//14 8//3
f 22//22 23//23 16//14
f 24//24 10//5 19//19
f 10//5 24//24 11//6
f 22//22 20//20 23//23
f 11//6 24//24 25//25
f 19//19 18//18 27//26
f 28//27 18//18 13//8
f 29//28 30//29 21//21
f 20//20 28//27 13//8
f 7//2 29//28 21//21
f 21//21 30//29 22//22
f 31//30 7//2 6//1
f 25//25 26//31 11//6
f 33//32 19//19 27//26
f 28//27 27//26 18//18
f 30//29 28//27 22//22
f 22//22 28//27 20//20
f 32//33 31//30 6//1
f 7//2 35//34 29//28
f 7//2 31//30 35//34
f 34//35 31//30 32//33
f 33//32 36//36 19//19
f 24//24 19//19 36//36
f 30//29 29//28 28//27
f 26//31 25//25 37//37
f 27//26 38//38 33//32
f 31//30 34//35 35//34
f 24//24 36//36 37//37
f 24//24 37//37 25//25
f 33//32 38//38 39//39
f 29//28 40//40 28//27
f 41//41 35//34 34//35
f 28//27 42//42 38//38
f 28//27 38//38 27//26
f 35//34 40//40 29//28
f 39//39 43//43 33//32
f 33//32 43//43 36//36
f 40//40 44//44 28//27
f 36//36 43//43 37//37
f 28//27 44//44 42//42
f 35//34 45//45 40//40
f 45//45 35//34 46//46
f 35//34 41//41 46//46
f 40//40 45//45 47//47
